HIERARCHY
ROOT pelvis
{
  OFFSET 0 100 0
  CHANNELS 6 Xposition Yposition Zposition Zrotation Xrotation Yrotation
  JOINT pelvis_right_femur
  {
    OFFSET -10.78128 -3.44521 -0.5502486
    CHANNELS 3 Zrotation Xrotation Yrotation
    JOINT right_femur_tibia
    {
      OFFSET -0.8047443 -44.0398 -0.1307829
      CHANNELS 3 Zrotation Xrotation Yrotation
      JOINT right_tibia_foot
      {
        OFFSET 3.006224 -47.83518 -5
        CHANNELS 3 Zrotation Xrotation Yrotation
        End Site
        {
          OFFSET 0 -5 15
        }
      }
    }
  }
  JOINT pelvis_left_femur
  {
    OFFSET 10.78128 -3.44521 -0.5502486
    CHANNELS 3 Zrotation Xrotation Yrotation
    JOINT left_femur_tibia
    {
      OFFSET 0.8047443 -44.0398 -0.1307829
      CHANNELS 3 Zrotation Xrotation Yrotation
      JOINT left_tibia_foot
      {
        OFFSET -4.370144 -48.10324 -4.275266
        CHANNELS 3 Zrotation Xrotation Yrotation
        End Site
        {
          OFFSET 0 -5 15
        }
      }
    }
  }
  JOINT pelvis_spine1
  {
    OFFSET 0 6.468898 -3.129235
    CHANNELS 3 Zrotation Xrotation Yrotation
    JOINT spine1
    {
      OFFSET 0 23.15396 4.99043
      CHANNELS 3 Zrotation Xrotation Yrotation
      JOINT spine2
      {
        OFFSET 0 20.79997 -5.064912
        CHANNELS 3 Zrotation Xrotation Yrotation
        JOINT neck
        {
          OFFSET 0 14.38658 9.616178
          CHANNELS 3 Zrotation Xrotation Yrotation
          End Site
          {
            OFFSET 0 20 0
          }
        }
      }
      JOINT right_manubrium
      {
        OFFSET -5.722621 16.35077 3.967754
        CHANNELS 3 Zrotation Xrotation Yrotation
        JOINT right_clavicle
        {
          OFFSET -13.16364 1.694482 -4.693211
          CHANNELS 3 Zrotation Xrotation Yrotation
          JOINT right_humerus
          {
            OFFSET -28.5034 -0.3100689 -2.792744
            CHANNELS 3 Zrotation Xrotation Yrotation
            JOINT right_radius
            {
              OFFSET -25.15693 0.02248979 -1.271978
              CHANNELS 3 Zrotation Xrotation Yrotation
              End Site
              {
                OFFSET -15 0 0
              }
            }
          }
        }
      }
      JOINT left_manubrium
      {
        OFFSET 5.722621 16.35077 3.967754
        CHANNELS 3 Zrotation Xrotation Yrotation
        JOINT left_clavicle
        {
          OFFSET 13.16364 1.694482 -4.693211
          CHANNELS 3 Zrotation Xrotation Yrotation
          JOINT left_humerus
          {
            OFFSET 29.39168 -1.063119 -2.237045
            CHANNELS 3 Zrotation Xrotation Yrotation
            JOINT left_radius
            {
              OFFSET 24.59957 -0.9528479 0.9047498
              CHANNELS 3 Zrotation Xrotation Yrotation
              End Site
              {
                OFFSET 15 -0 -0
              }
            }
          }
        }
      }
    }
  }
}
MOTION
Frames: 11
Frame Time: 0.0416666666667
0 103.5113 0 2.633151 0.4631472 0.1668472 2.744968 -15.4167 12.00832 -0 37.56136 -0 -3.603492 -17.46237 -3.009847 -9.136898 8.141744 -22.03645 -0 4.224659 -0 22.36085 -8.516127 29.75448 -2.480432 -2.923843 5.026882 2.878242 9.855277 -7.933569 1.249687 20.73699 6.665346 3.680486 -25.43031 8.781104 5.685249 -19.20227 11.04803 86.04952 35.05094 -20.01211 -0 0 15.27223 -8.543436 8.783509 3.797763 7.032433 -21.57493 -1.339579 -93.15378 21.93231 21.22216 0 0 -15.09525 12.4382 15.1519 -0.3446096
0.4151609 102.9511 1.65312 2.015455 1.013641 0.2853109 4.11311 -17.80449 12.65078 -0 38.14234 -0 -4.132556 -16.20162 -2.962408 -8.794495 8.046947 -21.73099 -0 4.810603 -0 23.37056 -8.705446 30.45473 -2.010942 -2.750518 5.03154 2.775039 9.805378 -8.116322 1.560942 20.16494 6.773412 3.729829 -26.48123 9.395039 5.314849 -19.22214 10.91661 86.85694 35.25962 -20.52858 -0 0 15.04457 -8.229019 9.303289 3.352801 7.538657 -21.67165 -0.7066203 -92.80492 21.86684 20.55358 0 0 -16.29177 13.35045 15.14791 -1.445408
0.7155728 102.3406 3.487424 1.19616 1.031683 0.3995495 4.98005 -20.78861 9.890077 -0 34.93686 -0 -5.678905 -14.18475 -2.341314 -7.907938 10.10045 -21.65567 -0 5.320205 -0 18.32224 -13.4372 29.01652 -2.061726 -2.464488 4.867875 2.88642 9.668795 -8.058956 1.304405 20.23635 6.994473 3.970609 -26.22377 9.031833 5.396171 -18.83084 10.99508 86.45899 35.11828 -20.21423 -0 0 14.68636 -8.803004 9.323851 3.878682 7.407251 -21.74192 -0.9489022 -92.44178 21.47764 20.06201 0 0 -16.32291 12.86415 14.54487 -1.1398
0.9666668 101.728 5.500303 0.4918153 1.412576 0.4837874 5.970159 -23.5762 9.04587 -0 33.20176 -0 -6.497418 -12.43097 -2.083961 -7.287629 10.93435 -21.31616 -0 5.90208 -0 15.93994 -15.91032 28.18342 -1.95796 -2.283684 4.754302 2.93694 9.570079 -8.09651 1.284254 20.11726 7.115974 4.063804 -26.43041 9.059074 5.355867 -18.62024 11.00223 86.49958 35.06791 -20.24813 -0 0 14.39348 -8.935937 9.495464 4.046413 7.447762 -21.75291 -0.8841023 -92.19314 21.42975 19.6439 0 0 -16.71297 12.73347 14.29792 -1.0911
1.181765 101.0432 7.812358 -0.1605672 1.834932 0.585864 6.761368 -26.66157 7.760095 -0 30.44297 -0 -7.475606 -10.23623 -1.556963 -6.692592 11.68763 -20.59944 -0 6.707388 -0 13.56666 -18.25847 26.70149 -1.880635 -2.101898 4.643549 2.989082 9.479482 -8.120862 1.23844 20.03085 7.233861 4.163098 -26.55149 9.030777 5.334529 -18.40308 11.02127 86.48629 35.00499 -20.23626 -0 0 14.10828 -9.122532 9.636018 4.254875 7.459534 -21.76985 -0.8666137 -91.94089 21.34068 19.24344 0 0 -17.03747 12.55671 14.02322 -0.9985264
1.376476 100.2883 10.48488 -0.7440186 2.411039 0.7381292 7.468165 -29.64289 6.731196 -0 27.54906 -0 -8.308673 -7.991587 -0.9992452 -6.195573 12.20465 -19.72566 -0 7.736864 -0 11.59772 -20.02231 25.03577 -1.782551 -1.944185 4.534805 3.038503 9.393736 -8.164626 1.231922 19.92093 7.329233 4.227227 -26.74302 9.067332 5.302784 -18.2124 11.03159 86.54642 34.94384 -20.29759 -0 0 13.82342 -9.220178 9.797785 4.409783 7.485946 -21.76912 -0.8064627 -91.72038 21.34286 18.87216 0 0 -17.41445 12.39992 13.82269 -0.8901067
1.559783 99.46827 13.61088 -1.258008 3.08513 0.9793312 8.011677 -32.3821 5.659073 -0 24.30757 -0 -9.097953 -5.617626 -0.3405074 -5.769664 12.62511 -18.65506 -0 9.221137 -0 9.619023 -21.29741 22.93043 -1.685092 -1.79524 4.431245 3.085011 9.315203 -8.210848 1.229462 19.81225 7.416211 4.283652 -26.92529 9.105288 5.271604 -18.03172 11.04243 86.61702 34.88089 -20.37025 -0 0 13.54494 -9.308521 9.955758 4.554834 7.51229 -21.77079 -0.748237 -91.50688 21.3482 18.51592 0 0 -17.7886 12.24867 13.6353 -0.7789101
1.740218 98.63149 17.27675 -1.725884 3.819963 1.339402 8.429757 -34.55237 4.657772 -0 21.08691 -0 -9.797668 -3.243606 0.330485 -5.389292 12.96358 -17.45722 -0 11.43933 -0 7.387386 -21.9397 20.36197 -1.597677 -1.661314 4.329315 3.133923 9.240872 -8.256534 1.228841 19.7181 7.489776 4.32451 -27.08886 9.140772 5.251061 -17.86007 11.05577 86.68225 34.80953 -20.44785 -0 0 13.27528 -9.379244 10.10124 4.700345 7.52185 -21.76206 -0.7003351 -91.31834 21.39052 18.20014 0 0 -18.13183 12.06566 13.47455 -0.6119973
1.928194 97.8695 21.56484 -2.177378 4.529529 1.827264 8.77136 -35.75878 3.821229 -0 18.25193 -0 -10.36529 -1.013401 0.9085826 -5.010999 13.19809 -16.15436 -0 14.79739 -0 4.660219 -21.71264 17.28507 -1.539915 -1.545557 4.230198 3.187966 9.171565 -8.290348 1.216383 19.66387 7.546162 4.349442 -27.19161 9.146145 5.254431 -17.69671 11.07688 86.70165 34.72621 -20.4954 -0 0 13.02818 -9.453364 10.21198 4.869286 7.490845 -21.73486 -0.6876904 -91.16819 21.47109 17.95437 0 0 -18.38411 11.8134 13.33648 -0.3472529
2.138947 97.32055 26.52374 -2.649591 5.09438 2.409274 9.148576 -35.55482 3.377036 -0 16.28232 -0 -10.70032 0.7943473 1.209434 -4.57758 13.1957 -14.78511 -0 19.73008 -0 1.389138 -20.28435 13.85323 -1.532022 -1.453381 4.133161 3.251756 9.105757 -8.301461 1.181892 19.67698 7.578136 4.351881 -27.1993 9.100135 5.295539 -17.54258 11.11079 86.63646 34.62631 -20.48021 -0 0 12.8173 -9.541632 10.26545 5.084831 7.39012 -21.67222 -0.732125 -91.07749 21.61504 17.81753 0 0 -18.48273 11.44027 13.2273 0.07875851
2.391647 97.14392 32.12585 -3.155372 5.362511 2.982768 9.650432 -33.59541 3.542344 -0 15.49251 -0 -10.68754 1.784194 1.025527 -4.037171 12.67186 -13.38188 -0 26.54881 -0 -2.111885 -17.38834 10.49805 -1.591242 -1.383152 4.03971 3.326388 9.042575 -8.278849 1.112901 19.77913 7.583062 4.332636 -27.07669 8.977609 5.379988 -17.39829 11.16198 86.45057 34.50966 -20.36267 -0 0 12.65586 -9.672228 10.24178 5.371249 7.199235 -21.56521 -0.8534364 -91.04937 21.81772 17.80565 0 0 -18.38272 10.91332 13.13468 0.6946178
